P2
24 7
15
 10  10  10  10  10  10  10  10  10  10  10  10  10  10  10  10  10  10  10  10  10  10  10  10 
 10  11  11  11  11  10  10  12  12  12  12  10  10  13  13  13  13  10  10  15  15  15  15  10 
 10  11  10  10  10  10  10  12  10  10  10  10  10  13  10  10  10  10  10  15  10  10  15  10 
 10  11  11  11  10  10  10  12  12  12  10  10  10  13  13  13  10  10  10  15  15  15  15  10 
 10  11  10  10  10  10  10  12  10  10  10  10  10  13  10  10  10  10  10  15  10  10  10  10 
 10  11  10  10  10  10  10  12  12  12  12  10  10  13  13  13  13  10  10  15  10  10  10  10 
 10  10  10  10  10  10  10  10  10  10  10  10  10  10  10  10  10  10  10  10  10  10  10  10 
